<svg xmlns="http://www.w3.org/2000/svg" version="1.1" xmlns:xlink="http://www.w3.org/1999/xlink" xmlns:svgjs="http://svgjs.com/svgjs" width="575" height="800" preserveAspectRatio="none" viewBox="0 0 575 800"><g mask="url(&quot;#SvgjsMask1211&quot;)" fill="none"><rect width="575" height="800" x="0" y="0" fill="url(#SvgjsLinearGradient1212)"></rect><path d="M471.8873518340301 616.7597726050235L529.927905559619 691.0482936739438 604.2164266285395 633.0077399483548 546.1758729029505 558.7192188794345z" fill="rgba(28, 83, 142, 0.4)" class="triangle-float2"></path><path d="M480.195,433.23C501.211,433.593,519.707,419.579,529.353,400.904C538.267,383.647,534.927,363.346,524.88,346.723C515.217,330.736,498.858,320.363,480.195,319.575C459.974,318.721,438.629,325.154,428.46,342.653C418.253,360.218,423.816,381.615,433.892,399.255C444.068,417.072,459.68,432.876,480.195,433.23" fill="rgba(28, 83, 142, 0.4)" class="triangle-float1"></path><path d="M15.902,541.466C42.382,540.637,60.466,518.261,74.152,495.577C88.488,471.817,103.178,443.598,89.526,419.439C75.746,395.054,43.909,392.171,15.902,392.496C-11.352,392.813,-40.671,397.818,-54.817,421.116C-69.379,445.098,-63.245,475.245,-49.031,499.435C-35.031,523.26,-11.718,542.331,15.902,541.466" fill="rgba(28, 83, 142, 0.4)" class="triangle-float2"></path><path d="M20.90626816543307 672.8964586546932L20.906268165433108 832.1284819166414 180.13829142738126 832.1284819166414 180.13829142738123 672.8964586546932z" fill="rgba(28, 83, 142, 0.4)" class="triangle-float3"></path><path d="M548.91,895.652C585.739,896.131,625.103,888.341,644.495,857.027C664.719,824.369,660.028,781.997,639.337,749.633C620.14,719.606,584.507,709.249,548.91,707.517C508.981,705.575,462.938,706.069,441.842,740.025C420.039,775.119,434.116,820.559,457.533,854.597C477.819,884.083,513.123,895.187,548.91,895.652" fill="rgba(28, 83, 142, 0.4)" class="triangle-float1"></path><path d="M320.245,441.933C359.926,443.455,401.181,430.517,421.692,396.514C442.776,361.561,436.241,318.099,416.489,282.376C395.983,245.29,362.621,212.631,320.245,213.042C278.39,213.448,246.019,246.834,227.178,284.211C210.278,317.737,212.361,356.879,231.441,389.214C250.191,420.99,283.376,440.518,320.245,441.933" fill="rgba(28, 83, 142, 0.4)" class="triangle-float3"></path><path d="M466.6477165260337 67.22101137380284L439.8856151486481-70.45806474303066 302.2065390318146-43.69596336564507 328.96864040920025 93.98311275118843z" fill="rgba(28, 83, 142, 0.4)" class="triangle-float2"></path><path d="M580.2586434454852 505.78675657080487L597.1501570356015 399.1379370560537 490.50133752085037 382.2464234659374 473.609823930734 488.8952429806885z" fill="rgba(28, 83, 142, 0.4)" class="triangle-float3"></path><path d="M185.125,373.09C200.531,372.659,213.942,363.4,221.571,350.009C229.119,336.76,229.675,320.839,222.581,307.342C214.938,292.799,201.545,280.106,185.125,280.663C169.34,281.198,159.559,295.97,151.824,309.74C144.307,323.122,137.824,338.566,144.966,352.152C152.495,366.474,168.951,373.543,185.125,373.09" fill="rgba(28, 83, 142, 0.4)" class="triangle-float2"></path><path d="M110.63388091581055-37.15780194088974L-34.45762087907886-14.177565633259722-11.477384571448837 130.9139361616297 133.61411722344056 107.93369985399967z" fill="rgba(28, 83, 142, 0.4)" class="triangle-float2"></path></g><defs><mask id="SvgjsMask1211"><rect width="575" height="800" fill="#ffffff"></rect></mask><linearGradient x1="-9.78%" y1="7.03%" x2="109.78%" y2="92.97%" gradientUnits="userSpaceOnUse" id="SvgjsLinearGradient1212"><stop stop-color="#0e2a47" offset="0"></stop><stop stop-color="rgba(113, 117, 218, 1)" offset="0.56"></stop></linearGradient><style>
            @keyframes float1 {
                0%{transform: translate(0, 0)}
                50%{transform: translate(-10px, 0)}
                100%{transform: translate(0, 0)}
            }

            .triangle-float1 {
                animation: float1 5s infinite;
            }

            @keyframes float2 {
                0%{transform: translate(0, 0)}
                50%{transform: translate(-5px, -5px)}
                100%{transform: translate(0, 0)}
            }

            .triangle-float2 {
                animation: float2 4s infinite;
            }

            @keyframes float3 {
                0%{transform: translate(0, 0)}
                50%{transform: translate(0, -10px)}
                100%{transform: translate(0, 0)}
            }

            .triangle-float3 {
                animation: float3 6s infinite;
            }
        </style></defs></svg>